<svg version="1.2" xmlns="http://www.w3.org/2000/svg" viewBox="0 0 843 573" width="843" height="573">
	<title>contact</title>
	<style>
		.s0 { fill: #ffffff } 
		.s1 { fill: #cccccc } 
		.s2 { fill: #818cf8 } 
		.s3 { fill: #ffb8b8 } 
		.s4 { fill: #2f2e41 } 
		.s5 { fill: #2d2d2d } 
	</style>
	<path class="s0" d="m35.2 182.1q-0.3 0-0.5 0-0.2 0-0.4-0.1-0.2 0-0.4 0-0.2-0.1-0.4-0.2-0.6-0.2-1.2-0.7-0.5-0.4-0.9-0.9-0.4-0.6-0.6-1.2-0.2-0.7-0.2-1.4v-47q0-1.2-0.4-2.3-0.5-1.1-1.3-2-0.9-0.8-2-1.3-1.1-0.4-2.3-0.4h-9.6c-2 0-3.9-0.4-5.7-1.2-1.9-0.7-3.5-1.8-4.9-3.2-1.4-1.4-2.5-3.1-3.3-4.9-0.7-1.8-1.1-3.8-1.1-5.7v-94.6c0-2 0.4-3.9 1.1-5.7 0.8-1.9 1.9-3.5 3.3-4.9 1.4-1.4 3-2.5 4.9-3.3 1.8-0.7 3.7-1.1 5.7-1.1h339.7c2 0 4 0.4 5.8 1.1 1.8 0.8 3.4 1.9 4.8 3.3 1.4 1.4 2.5 3 3.3 4.9 0.8 1.8 1.1 3.7 1.1 5.7v94.6c0 1.9-0.3 3.9-1.1 5.7-0.8 1.8-1.9 3.5-3.3 4.9-1.4 1.4-3 2.5-4.8 3.2-1.8 0.8-3.8 1.2-5.8 1.2h-262.2q-0.6 0-1.2 0.1-0.6 0.1-1.2 0.4-0.6 0.2-1.1 0.6-0.5 0.4-0.9 0.8l-49.6 54.2q-0.3 0.3-0.7 0.6-0.4 0.3-0.8 0.4-0.5 0.2-0.9 0.3-0.5 0.1-0.9 0.1zm-20.2-180.1c-1.7 0-3.4 0.3-5 1-1.5 0.6-3 1.6-4.2 2.8-1.2 1.2-2.2 2.7-2.8 4.2-0.7 1.6-1 3.3-1 5v94.6c0 1.7 0.3 3.4 1 4.9 0.6 1.6 1.6 3.1 2.8 4.3 1.2 1.2 2.7 2.1 4.2 2.8 1.6 0.6 3.3 1 5 1h9.6q1.6 0 3.1 0.6 1.5 0.6 2.6 1.7 1.1 1.2 1.7 2.6 0.6 1.5 0.6 3.1v47c0 0.5 0.2 1 0.5 1.4 0.3 0.4 0.7 0.8 1.1 1 0.5 0.1 1 0.2 1.5 0.1 0.5-0.2 1-0.4 1.3-0.8l49.6-54.1q0.6-0.6 1.3-1.1 0.6-0.5 1.4-0.8 0.8-0.4 1.6-0.5 0.8-0.2 1.6-0.2h262.2c1.7 0 3.4-0.4 5-1 1.6-0.7 3-1.6 4.2-2.8 1.2-1.2 2.2-2.7 2.8-4.3 0.7-1.5 1-3.2 1-4.9v-94.6c0-1.7-0.3-3.4-1-5-0.6-1.5-1.6-3-2.8-4.2-1.2-1.2-2.6-2.2-4.2-2.8-1.6-0.7-3.3-1-5-1z"/>
	<path fill-rule="evenodd" class="s1" d="m36.8 42.6c-7.2 0-13.1-5.9-13.1-13.1 0-7.3 5.9-13.2 13.1-13.2 7.3 0 13.1 5.9 13.1 13.2 0 7.2-5.8 13.1-13.1 13.1z"/>
	<path class="s1" d="m339.4 102.1h-309.1c-1.8 0-3.6-0.7-4.9-2-1.3-1.3-2.1-3.1-2.1-5 0-1.8 0.8-3.6 2.1-4.9 1.3-1.3 3.1-2.1 4.9-2.1h309.1c1.9 0 3.7 0.8 5 2.1 1.3 1.3 2 3.1 2 4.9 0 1.9-0.7 3.7-2 5-1.3 1.3-3.1 2-5 2z"/>
	<path class="s1" d="m238.7 72.4h-208.4c-1.8 0-3.6-0.8-4.9-2.1-1.3-1.3-2.1-3.1-2.1-4.9 0-1.9 0.8-3.7 2.1-5 1.3-1.3 3.1-2.1 4.9-2h208.4c1.9-0.1 3.7 0.7 5 2 1.3 1.3 2 3.1 2 5 0 1.8-0.7 3.6-2 4.9-1.3 1.3-3.1 2.1-5 2.1z"/>
	<path class="s0" d="m35.2 515.7q-0.3 0-0.5 0-0.2 0-0.4-0.1-0.2 0-0.4-0.1-0.2 0-0.4-0.1-0.6-0.2-1.2-0.7-0.5-0.4-0.9-0.9-0.4-0.6-0.6-1.3-0.2-0.6-0.2-1.3v-47q0-1.2-0.4-2.3-0.5-1.1-1.3-2-0.9-0.8-2-1.3-1.1-0.4-2.3-0.4h-9.6c-2 0-3.9-0.4-5.7-1.2-1.9-0.7-3.5-1.8-4.9-3.2-1.4-1.4-2.5-3.1-3.3-4.9-0.7-1.8-1.1-3.8-1.1-5.7v-94.6c0-2 0.4-3.9 1.1-5.7 0.8-1.9 1.9-3.5 3.3-4.9 1.4-1.4 3-2.5 4.9-3.3 1.8-0.7 3.7-1.1 5.7-1.1h339.7c2 0 4 0.4 5.8 1.1 1.8 0.8 3.4 1.9 4.8 3.3 1.4 1.4 2.5 3 3.3 4.9 0.8 1.8 1.1 3.7 1.1 5.7v94.6c0 1.9-0.3 3.9-1.1 5.7-0.8 1.8-1.9 3.5-3.3 4.9-1.4 1.4-3 2.5-4.8 3.2-1.8 0.8-3.8 1.2-5.8 1.2h-262.2q-0.6 0-1.2 0.1-0.6 0.1-1.2 0.4-0.6 0.2-1.1 0.6-0.5 0.4-0.9 0.8l-49.6 54.2q-0.3 0.3-0.7 0.6-0.4 0.2-0.8 0.4-0.5 0.2-0.9 0.3-0.5 0.1-0.9 0.1zm-20.2-180.1c-1.7 0-3.4 0.3-5 1-1.5 0.6-3 1.6-4.2 2.8-1.2 1.2-2.2 2.7-2.8 4.2-0.7 1.6-1 3.3-1 5v94.6c0 1.7 0.3 3.4 1 4.9 0.6 1.6 1.6 3.1 2.8 4.3 1.2 1.2 2.7 2.1 4.2 2.8 1.6 0.6 3.3 1 5 1h9.6q1.6 0 3.1 0.6 1.5 0.6 2.6 1.7 1.1 1.2 1.7 2.6 0.6 1.5 0.6 3.1v47c0 0.5 0.2 1 0.5 1.4 0.3 0.4 0.7 0.8 1.1 0.9 0.5 0.2 1 0.3 1.5 0.2 0.5-0.2 1-0.4 1.3-0.8l49.6-54.1q0.6-0.6 1.3-1.1 0.6-0.5 1.4-0.8 0.8-0.4 1.6-0.6 0.8-0.1 1.6-0.1h262.2c1.7 0 3.4-0.4 5-1 1.6-0.7 3-1.6 4.2-2.8 1.2-1.2 2.2-2.7 2.8-4.3 0.7-1.5 1-3.2 1-4.9v-94.6c0-1.7-0.3-3.4-1-5-0.6-1.5-1.6-3-2.8-4.2-1.2-1.2-2.6-2.2-4.2-2.8-1.6-0.7-3.3-1-5-1z"/>
	<path class="s0" d="m536.8 342.4q-0.4 0-0.9-0.1-0.4-0.1-0.9-0.3-0.4-0.2-0.8-0.5-0.3-0.3-0.7-0.6l-49.6-54.1q-0.4-0.5-0.9-0.9-0.5-0.3-1.1-0.6-0.6-0.2-1.2-0.4-0.6-0.1-1.2-0.1h-262.2c-2 0-4-0.4-5.8-1.1-1.8-0.8-3.4-1.9-4.8-3.3-1.4-1.4-2.5-3-3.3-4.9-0.7-1.8-1.1-3.7-1.1-5.7v-94.6c0-1.9 0.4-3.9 1.1-5.7 0.8-1.8 1.9-3.5 3.3-4.9 1.4-1.4 3-2.5 4.8-3.2 1.8-0.8 3.8-1.2 5.8-1.2h339.7c2 0 3.9 0.4 5.7 1.2 1.9 0.7 3.5 1.8 4.9 3.2 1.4 1.4 2.5 3.1 3.3 4.9 0.7 1.8 1.1 3.8 1.1 5.7v94.6c0 2-0.4 3.9-1.1 5.7-0.8 1.9-1.9 3.5-3.3 4.9-1.4 1.4-3 2.5-4.9 3.3-1.8 0.7-3.7 1.1-5.7 1.1h-9.6q-1.2 0-2.3 0.5-1.1 0.4-2 1.3-0.8 0.8-1.3 1.9-0.4 1.1-0.4 2.3v47.1q0 0.6-0.2 1.3-0.2 0.6-0.6 1.2-0.4 0.6-0.9 1-0.6 0.4-1.2 0.6-0.2 0.1-0.4 0.2-0.2 0-0.4 0.1-0.2 0-0.4 0-0.2 0.1-0.5 0.1zm-319.5-180.2c-1.7 0-3.4 0.4-5 1-1.6 0.7-3 1.6-4.2 2.8-1.2 1.3-2.2 2.7-2.8 4.3-0.7 1.5-1 3.2-1 4.9v94.6c0 1.7 0.3 3.4 1 5 0.6 1.6 1.6 3 2.8 4.2 1.2 1.2 2.6 2.2 4.2 2.8 1.6 0.7 3.3 1 5 1h262.2q0.8 0 1.6 0.2 0.8 0.2 1.6 0.5 0.8 0.3 1.4 0.8 0.7 0.5 1.3 1.1l49.6 54.1c0.4 0.4 0.8 0.7 1.3 0.8 0.5 0.1 1 0.1 1.5-0.1 0.4-0.2 0.8-0.5 1.1-0.9 0.3-0.5 0.5-0.9 0.5-1.4v-47.1q0-1.6 0.6-3 0.6-1.5 1.7-2.6 1.1-1.2 2.6-1.8 1.5-0.6 3.1-0.6h9.6c1.7 0 3.4-0.3 5-1 1.5-0.6 3-1.6 4.2-2.8 1.2-1.2 2.2-2.6 2.8-4.2 0.7-1.6 1-3.3 1-5v-94.6c0-1.7-0.3-3.4-1-4.9-0.6-1.6-1.6-3-2.8-4.3-1.2-1.2-2.7-2.1-4.2-2.8-1.6-0.6-3.3-1-5-1z"/>
	<path fill-rule="evenodd" class="s1" d="m36.8 376.2c-7.2 0-13.1-5.9-13.1-13.1 0-7.3 5.9-13.2 13.1-13.2 7.3 0 13.1 5.9 13.1 13.2 0 7.2-5.8 13.1-13.1 13.1z"/>
	<path class="s1" d="m339.4 435.7h-309.1c-1.8 0-3.6-0.7-4.9-2-1.3-1.3-2.1-3.1-2.1-5 0-1.8 0.8-3.6 2.1-4.9 1.3-1.3 3.1-2.1 4.9-2.1h309.1c1.9 0 3.7 0.8 5 2.1 1.3 1.3 2 3.1 2 4.9 0 1.9-0.7 3.7-2 5-1.3 1.3-3.1 2-5 2z"/>
	<path class="s1" d="m238.7 406h-208.4c-1.8 0-3.6-0.8-4.9-2.1-1.3-1.3-2.1-3.1-2.1-4.9 0-1.9 0.8-3.7 2.1-5 1.3-1.3 3.1-2.1 4.9-2.1h208.4c1.9 0 3.7 0.8 5 2.1 1.3 1.3 2 3.1 2 5 0 1.8-0.7 3.6-2 4.9-1.3 1.3-3.1 2.1-5 2.1z"/>
	<path fill-rule="evenodd" class="s2" d="m239.1 201.9c-7.3 0-13.2-5.8-13.2-13.1 0-7.3 5.9-13.1 13.2-13.1 7.2 0 13.1 5.8 13.1 13.1 0 7.3-5.9 13.1-13.1 13.1z"/>
	<path class="s2" d="m541.7 261.5h-309.1c-1.9 0-3.6-0.8-5-2.1-1.3-1.3-2-3.1-2-4.9 0-1.9 0.7-3.7 2-5 1.4-1.3 3.1-2 5-2h309.1c1.8 0 3.6 0.7 4.9 2 1.3 1.3 2.1 3.1 2.1 5 0 1.8-0.8 3.6-2.1 4.9-1.3 1.3-3.1 2.1-4.9 2.1z"/>
	<path class="s2" d="m441 231.7h-208.4c-1.9 0-3.7-0.7-5-2-1.3-1.3-2-3.1-2-5 0-1.8 0.7-3.6 2-4.9 1.3-1.4 3.1-2.1 5-2.1h208.4c1.8 0 3.6 0.7 4.9 2.1 1.4 1.3 2.1 3.1 2.1 4.9 0 1.9-0.7 3.7-2.1 5-1.3 1.3-3.1 2-4.9 2z"/>
	<path class="s3" d="m541.5 360.4c0.3-1.5 0.9-2.8 1.8-4 0.9-1.2 2-2.2 3.3-2.9 1.3-0.6 2.8-1 4.2-1.1 1.5-0.1 3 0.1 4.3 0.7l23.5-27 5 17.9-23.1 22.9c-1 2.2-2.9 4-5.2 4.9-2.3 1-4.8 1.1-7.2 0.3-2.3-0.9-4.3-2.5-5.5-4.6-1.2-2.2-1.6-4.7-1.1-7.1z"/>
	<path fill-rule="evenodd" class="s3" d="m670.3 233.9c-13.6 0-24.6-11-24.6-24.6 0-13.6 11-24.6 24.6-24.6 13.6 0 24.6 11 24.6 24.6 0 13.6-11 24.6-24.6 24.6z"/>
	<path fill-rule="evenodd" class="s3" d="m641.4 547.4h-12.2l-5.9-47.3h18.1v47.3z"/>
	<path class="s4" d="m644.6 559.3h-39.6v-0.5c0-2.1 0.4-4.1 1.2-5.9 0.8-1.9 1.9-3.6 3.3-5 1.5-1.5 3.2-2.6 5-3.4 1.9-0.7 3.9-1.1 5.9-1.1h24.2z"/>
	<path fill-rule="evenodd" class="s3" d="m678.4 560.4h-12.2l-1.7-46.2 13.9-1.1v47.3z"/>
	<path class="s4" d="m681.6 572.3h-39.6v-0.5c0-2.1 0.4-4.1 1.2-5.9 0.8-1.9 1.9-3.6 3.3-5 1.5-1.5 3.2-2.6 5-3.4 1.9-0.7 3.9-1.1 5.9-1.1h24.2z"/>
	<path class="s5" d="m674.9 551.7l-9.5-1.1q-0.8-0.1-1.5-0.5-0.8-0.3-1.3-0.9-0.6-0.6-0.9-1.4-0.3-0.8-0.3-1.6l-1.8-124.3c0-0.4-0.1-0.7-0.3-1-0.3-0.2-0.6-0.4-0.9-0.5-0.4 0-0.7 0-1 0.2-0.3 0.2-0.6 0.5-0.7 0.8l-13.2 37.4 0.9 70.1q0 0.9-0.3 1.7-0.3 0.8-0.9 1.4-0.6 0.7-1.3 1-0.8 0.4-1.7 0.5l-12.5 0.5q-0.8 0-1.6-0.2-0.8-0.3-1.5-0.9-0.7-0.5-1.1-1.2-0.4-0.8-0.5-1.6l-6.5-79.3v-0.1l9.9-82.8 74.1 5.4-20.6 174.5q-0.1 0.8-0.4 1.6-0.4 0.7-1 1.2-0.7 0.6-1.4 0.9-0.8 0.3-1.6 0.3-0.1 0-0.2 0 0 0-0.1 0-0.1 0-0.1 0-0.1 0-0.2-0.1z"/>
	<path class="s2" d="m626.7 375.2q-0.5-0.2-0.9-0.6-0.5-0.4-0.8-0.9-0.3-0.5-0.5-1-0.1-0.5-0.2-1.1c0-0.4 6.7-41.5 9.1-42.3l-5.3-44.3q-0.5-4.1-0.2-8.1 0.4-4.1 1.5-8 1.1-4 3-7.6 1.9-3.6 4.5-6.8 2.4-3.1 5.5-5.6 3-2.5 6.5-4.4 3.5-1.9 7.3-3 3.8-1.1 7.7-1.5 1.1-0.1 2.2-0.1c3.2-0.2 6.3 0 9.4 0.6 3.1 0.6 6.2 1.5 9 2.8 2.9 1.3 5.6 3 8.1 4.9 2.5 2 4.7 4.2 6.7 6.7 2 2.5 3.7 5.3 5 8.2 1.4 2.9 2.4 6 3 9.2 0.7 3.1 0.9 6.3 0.8 9.6-0.2 3.2-0.7 6.4-1.6 9.4l-3 10.5v72.9q0 0.6-0.1 1.1-0.2 0.5-0.4 1-0.3 0.5-0.6 0.9-0.4 0.4-0.8 0.7c-9.3 6.8-19.9 9.3-30.1 9.3-19.4 0-37.8-8.7-44.8-12.5z"/>
	<path class="s2" d="m569.1 361.9l-12.9-9.7q-0.8-0.5-1.3-1.4-0.4-0.8-0.5-1.8-0.1-0.9 0.2-1.8 0.3-0.9 1-1.6l76.8-82.5c1.3-1.3 2.7-2.4 4.3-3.2 1.6-0.8 3.3-1.3 5.1-1.5 1.8-0.2 3.6 0 5.3 0.4 1.8 0.4 3.4 1.2 4.9 2.2 1.8 1.3 3.3 2.9 4.4 4.8 1.1 1.9 1.7 4 1.9 6.2 0.2 2.2-0.1 4.4-0.9 6.5-0.7 2.1-1.9 3.9-3.5 5.5l-79 77.5q-0.5 0.5-1.2 0.8-0.6 0.3-1.3 0.4-0.8 0.1-1.5 0-0.7-0.1-1.3-0.5-0.1 0-0.2-0.1 0 0-0.1-0.1 0 0-0.1 0-0.1-0.1-0.1-0.1z"/>
	<path class="s3" d="m667.8 351c0.6-1.4 1.4-2.6 2.5-3.6 1.1-1 2.4-1.7 3.8-2.2 1.4-0.4 2.9-0.5 4.4-0.4 1.4 0.2 2.8 0.8 4 1.6l28.1-22.1 1.6 18.5-26.9 18.1c-1.5 2-3.6 3.4-6.1 3.9-2.4 0.5-4.9 0.1-7.1-1.1-2.1-1.2-3.7-3.2-4.5-5.6-0.8-2.3-0.7-4.9 0.2-7.1z"/>
	<path class="s2" d="m693 359.6q-0.6-0.2-1.1-0.5-0.5-0.3-0.9-0.7-0.4-0.5-0.6-1-0.3-0.5-0.5-1.1l-2.8-11.9q-0.1-0.6-0.1-1.3 0-0.6 0.2-1.2 0.3-0.7 0.6-1.2 0.4-0.5 1-0.9l19-20.6-28-43.3c-1.1-1.3-1.9-2.8-2.5-4.4-0.6-1.5-0.9-3.2-0.9-4.9-0.1-1.6 0.2-3.3 0.7-4.9 0.5-1.6 1.2-3.1 2.2-4.5 1.6-2.1 3.7-3.8 6.2-4.9 2.5-1.1 5.2-1.5 7.8-1.2 2.7 0.3 5.2 1.3 7.4 2.9 2.1 1.6 3.8 3.8 4.9 6.2l26.1 50.8c1.3 2.5 2.1 5.3 2.4 8.1 0.3 2.8 0.1 5.6-0.6 8.3-0.7 2.7-1.9 5.3-3.5 7.6-1.6 2.3-3.7 4.3-6 5.8l-26.7 17.9q-0.3 0.2-0.6 0.4-0.4 0.3-0.8 0.4-0.4 0.1-0.8 0.2-0.4 0.1-0.8 0.1-0.1 0-0.3 0-0.2 0-0.4-0.1-0.1 0-0.3 0-0.2-0.1-0.3-0.1z"/>
	<path class="s5" d="m688.5 231.3q-0.9 0.5-1.9 0.6-1 0.1-2-0.3-0.9-0.4-1.6-1.2-0.7-0.7-1-1.7v-0.1c-0.5-2-0.1-4.2 0-6.3 0.1-2.1-0.1-4.4-1.5-5.9-2.7-2.9-7.4-1.3-11.3-2q-1.7-0.4-3.1-1.3-1.5-1-2.5-2.4-1.1-1.4-1.5-3-0.5-1.7-0.3-3.4 0-0.7 0.2-1.3c0.2-1.1 0.2-2.3-0.1-3.4-0.3-1.1-0.8-2.1-1.5-3-0.8-0.8-1.7-1.5-2.8-1.9-1-0.5-2.1-0.6-3.3-0.6-3.9 0.3-8.1 1.5-11.3-1.4q-0.9-0.8-1.5-1.9-0.6-1.1-0.9-2.3-0.2-1.2-0.2-2.4 0.1-1.2 0.6-2.4c1.8-5.3 6.9-8.1 12.1-9.7q4.8-1.4 9.7-1.7 5-0.3 9.9 0.5 4.9 0.7 9.5 2.6 4.6 1.8 8.7 4.6c3.3 2.3 6.3 5.2 7.7 8.9 1.4 3.7 0.8 8.4-2.3 10.9q1.8 1.9 3.1 4.2 1.2 2.3 1.9 4.9 0.6 2.6 0.5 5.2 0 2.7-0.8 5.2c-1.5 5-8.8 9.8-12.5 12z"/>
</svg>